<?xml version="1.0" encoding="UTF-8" standalone="no"?>
<!DOCTYPE svg PUBLIC "-//W3C//DTD SVG 1.1//EN" "http://www.w3.org/Graphics/SVG/1.1/DTD/svg11.dtd">
<!-- Created with Vectornator (http://vectornator.io/) -->
<svg height="100%" stroke-miterlimit="10" style="fill-rule:nonzero;clip-rule:evenodd;stroke-linecap:round;stroke-linejoin:round;" version="1.1" viewBox="0 0 48 48" width="100%" xml:space="preserve" xmlns="http://www.w3.org/2000/svg" xmlns:vectornator="http://vectornator.io" xmlns:xlink="http://www.w3.org/1999/xlink">
<defs>
<clipPath id="TextBounds">
<rect height="16.3574" width="48.8151" x="-0.40757" y="15.8213"/>
</clipPath>
<g id="Fill">
<path clip-path="url(#TextBounds)" d="M4.77212 19.0264L4.60805 19.0264C4.25649 19.0264 4.02798 19.0947 3.92251 19.2314C3.81704 19.3682 3.7643 19.6533 3.7643 20.0869L3.7643 22.4424C3.7643 22.8564 3.70766 23.1943 3.59438 23.4561C3.4811 23.6826 3.2643 23.8916 2.94399 24.083C3.49087 24.4111 3.7643 24.8447 3.7643 25.3838L3.7643 28.0381C3.7643 28.4834 3.81704 28.7764 3.92251 28.917C4.03188 29.0576 4.2604 29.1279 4.60805 29.1279L4.77212 29.1221L4.77212 30.3057L4.43813 30.3057L4.02212 30.3291C3.4479 30.3291 3.03579 30.1748 2.78579 29.8662C2.53579 29.5576 2.41079 29.0498 2.41079 28.3428L2.41079 25.46C2.41079 25.2568 2.34243 25.0762 2.20571 24.918C2.06899 24.7598 1.88345 24.6533 1.64907 24.5986L1.64907 23.4678C1.92251 23.4053 2.11782 23.2881 2.23501 23.1162C2.3522 22.9443 2.41079 22.6885 2.41079 22.3486L2.41079 19.7354C2.41079 19.0674 2.53481 18.582 2.78286 18.2793C3.03091 17.9766 3.43032 17.8252 3.9811 17.8252L4.43227 17.8369L4.77212 17.8486L4.77212 19.0264Z"/>
<path clip-path="url(#TextBounds)" d="M7.83071 22.3135L11.7331 22.3135L11.7331 18.7744L13.0983 18.7744L13.0983 27.8213L11.7331 27.8213L11.7331 23.5967L7.83071 23.5967L7.83071 27.8213L6.46548 27.8213L6.46548 18.7744L7.83071 18.7744L7.83071 22.3135Z"/>
<path clip-path="url(#TextBounds)" d="M14.9499 27.8213L16.8541 18.0947L19.9596 25.126L23.1764 18.0947L24.8874 27.8213L23.487 27.8213L22.6139 22.3604L19.9362 28.2373L17.3346 22.3545L16.362 27.8213L14.9499 27.8213Z"/>
<path clip-path="url(#TextBounds)" d="M32.1178 25.624L28.2448 25.624L27.237 27.8213L25.7663 27.8213L30.2428 18.2061L34.5612 27.8213L33.067 27.8213L32.1178 25.624ZM31.5612 24.3408L30.2194 21.2646L28.8131 24.3408L31.5612 24.3408Z"/>
<path clip-path="url(#TextBounds)" d="M41.9557 19.2607L41.9557 20.8779C41.1666 20.2178 40.3502 19.8877 39.5065 19.8877C38.5768 19.8877 37.7936 20.2217 37.1569 20.8896C36.5163 21.5537 36.1959 22.3662 36.1959 23.3271C36.1959 24.2764 36.5163 25.0771 37.1569 25.7295C37.7975 26.3818 38.5827 26.708 39.5124 26.708C39.9928 26.708 40.401 26.6299 40.737 26.4736C40.9245 26.3955 41.1188 26.29 41.32 26.1572C41.5211 26.0244 41.7331 25.8643 41.9557 25.6768L41.9557 27.3232C41.1745 27.7646 40.3541 27.9854 39.4948 27.9854C38.2018 27.9854 37.0983 27.5342 36.1842 26.6318C35.2741 25.7217 34.819 24.624 34.819 23.3389C34.819 22.1865 35.1999 21.1592 35.9616 20.2568C36.8991 19.1514 38.112 18.5986 39.6002 18.5986C40.4127 18.5986 41.1979 18.8193 41.9557 19.2607Z"/>
<path clip-path="url(#TextBounds)" d="M43.2096 29.1221L43.3737 29.1279C43.7213 29.1279 43.9479 29.0596 44.0534 28.9229C44.1627 28.79 44.2174 28.5029 44.2174 28.0615L44.2174 25.7178C44.2174 25.2998 44.2741 24.96 44.3874 24.6982C44.5006 24.4717 44.7174 24.2627 45.0377 24.0713C44.4909 23.7432 44.2174 23.3115 44.2174 22.7764L44.2174 20.1104C44.2174 19.6572 44.1627 19.3643 44.0534 19.2314C43.9401 19.0908 43.7135 19.0205 43.3737 19.0205L43.2096 19.0264L43.2096 17.8428L43.5436 17.8428L43.9538 17.8193C44.528 17.8193 44.9401 17.9736 45.1901 18.2822C45.444 18.5947 45.5709 19.1025 45.5709 19.8057L45.5709 22.7002C45.5709 22.9033 45.6393 23.084 45.776 23.2422C45.9127 23.4004 46.0983 23.5068 46.3327 23.5615L46.3327 24.6865C46.0592 24.7529 45.8639 24.8721 45.7467 25.0439C45.6295 25.2158 45.5709 25.4697 45.5709 25.8057L45.5709 28.4189C45.5709 29.0869 45.4469 29.5723 45.1989 29.875C44.9508 30.1777 44.5514 30.3291 44.0006 30.3291L43.5495 30.3115L43.2096 30.3115L43.2096 29.1221Z"/>
</g>
</defs>
<g id="Layer-1" vectornator:layerName="Layer 1">
<g opacity="1">
<use fill="#ffffff" stroke="none" xlink:href="#Fill"/>
<mask height="108.875" id="StrokeMask" maskUnits="userSpaceOnUse" width="140.051" x="-46.0345" y="-30.8623">
<rect fill="#ffffff" height="108.875" stroke="none" width="140.051" x="-46.0345" y="-30.8623"/>
<use fill="#000000" fill-rule="evenodd" stroke="none" xlink:href="#Fill"/>
</mask>
<use fill="none" mask="url(#StrokeMask)" stroke="#f5891d" stroke-linecap="butt" stroke-linejoin="miter" stroke-width="2" xlink:href="#Fill"/>
</g>
</g>
</svg>
